<?xml version="1.0" encoding="UTF-8" standalone="no"?>
<!-- Created with Inkscape (http://www.inkscape.org/) -->

<svg
   xmlns:dc="http://purl.org/dc/elements/1.1/"
   xmlns:cc="http://creativecommons.org/ns#"
   xmlns:rdf="http://www.w3.org/1999/02/22-rdf-syntax-ns#"
   xmlns:svg="http://www.w3.org/2000/svg"
   xmlns="http://www.w3.org/2000/svg"
   xmlns:sodipodi="http://sodipodi.sourceforge.net/DTD/sodipodi-0.dtd"
   xmlns:inkscape="http://www.inkscape.org/namespaces/inkscape"
   width="52.00042mm"
   height="52.00042mm"
   viewBox="0 0 52.000419 52.000419"
   version="1.1"
   id="svg8"
   inkscape:version="0.92.5 (2060ec1f9f, 2020-04-08)"
   sodipodi:docname="exit.svg"
   inkscape:export-filename="/mnt/Data/Developpement/Projets Programmation/Projets InDev/Projets Java/PostThat/svg/exit.png"
   inkscape:export-xdpi="31.261286"
   inkscape:export-ydpi="31.261286">
  <defs
     id="defs2" />
  <sodipodi:namedview
     id="base"
     pagecolor="#ffffff"
     bordercolor="#666666"
     borderopacity="1.0"
     inkscape:pageopacity="0.0"
     inkscape:pageshadow="2"
     inkscape:zoom="3.959798"
     inkscape:cx="61.333717"
     inkscape:cy="87.008493"
     inkscape:document-units="mm"
     inkscape:current-layer="layer1"
     showgrid="false"
     inkscape:pagecheckerboard="true"
     inkscape:window-width="1920"
     inkscape:window-height="1016"
     inkscape:window-x="0"
     inkscape:window-y="27"
     inkscape:window-maximized="1" />
  <metadata
     id="metadata5">
    <rdf:RDF>
      <cc:Work
         rdf:about="">
        <dc:format>image/svg+xml</dc:format>
        <dc:type
           rdf:resource="http://purl.org/dc/dcmitype/StillImage" />
        <dc:title />
      </cc:Work>
    </rdf:RDF>
  </metadata>
  <g
     inkscape:label="Layer 1"
     inkscape:groupmode="layer"
     id="layer1"
     transform="translate(-73.740379,-76.267898)">
    <path
       style="opacity:1;fill:#d9b68b;fill-opacity:1;stroke:none;stroke-width:3.74642277;stroke-linecap:round;stroke-linejoin:round;stroke-miterlimit:4;stroke-dasharray:none;stroke-opacity:1"
       d="m 83.739497,76.39501 a 1.8733987,1.8733987 0 0 0 -1.872754,1.873271 v 47.999659 a 1.8733987,1.8733987 0 0 0 1.872754,1.87326 h 32.000113 a 1.8733987,1.8733987 0 0 0 1.87482,-1.87326 V 78.268281 a 1.8733987,1.8733987 0 0 0 -1.87482,-1.873271 z"
       id="rect818"
       inkscape:connector-curvature="0" />
    <path
       style="fill:#8c694a;fill-opacity:1;stroke:none;stroke-width:0.26458332px;stroke-linecap:butt;stroke-linejoin:miter;stroke-opacity:1"
       d="m 83.784972,76.26946 a 2.0002,2.0002 0 0 0 -1.918229,1.998328 v 47.999652 a 2.0002,2.0002 0 0 0 2.703194,1.87327 l 21.334093,-8.00003 a 2.0002,2.0002 0 0 0 1.29657,-1.87327 V 86.267816 a 2.0002,2.0002 0 0 0 -1.29657,-1.873271 L 84.569937,76.396584 A 2.0002,2.0002 0 0 0 83.784972,76.26946 Z"
       id="path822"
       inkscape:connector-curvature="0" />
    <path
       style="opacity:1;fill:#09a603;fill-opacity:1;stroke:none;stroke-width:5.02193832;stroke-linecap:round;stroke-linejoin:round;stroke-miterlimit:4;stroke-dasharray:none;stroke-opacity:1"
       d="m 110.50654,99.853392 v 1.207348 H 81.866743 v 2.41472 h 28.639797 v 1.20736 l 2.86383,-2.41472 z"
       id="rect824"
       inkscape:connector-curvature="0" />
  </g>
</svg>
